HIERARCHY
ROOT Hips
{
	OFFSET 0.000000 0.000000 0.000000
	CHANNELS 6 Xposition Yposition Zposition Zrotation Yrotation Xrotation 
	JOINT LeftUpLeg_virtual
	{
		OFFSET 0.000000 0.000000 0.000000
		CHANNELS 3 Zrotation Yrotation Xrotation
		JOINT LeftUpLeg
		{
			OFFSET 10.205400 -3.823500 0.155100
			CHANNELS 3 Zrotation Yrotation Xrotation
			JOINT LeftLeg
			{
				OFFSET 0.708757 -12.982077 0.567790
				CHANNELS 3 Zrotation Yrotation Xrotation
				JOINT LeftFoot
				{
					OFFSET -0.708756 -10.717838 -2.184338
					CHANNELS 3 Zrotation Yrotation Xrotation
					JOINT LeftToeBase
					{
						OFFSET 0.108149 -7.191104 7.560241
						CHANNELS 3 Zrotation Yrotation Xrotation
						End Site
						{
							OFFSET 0.000000 0.000000 0.000000
						}
					}
				}
			}
		}
	}
	JOINT RightUpLeg_virtual
	{
		OFFSET 0.000000 0.000000 0.000000
		CHANNELS 3 Zrotation Yrotation Xrotation
		JOINT RightUpLeg
		{
			OFFSET -10.205400 -3.823500 0.005500
			CHANNELS 3 Zrotation Yrotation Xrotation
			JOINT RightLeg
			{
				OFFSET -0.708756 -12.982134 0.610632
				CHANNELS 3 Zrotation Yrotation Xrotation
				JOINT RightFoot
				{
					OFFSET 0.708754 -10.717769 -1.945823
					CHANNELS 3 Zrotation Yrotation Xrotation
					JOINT RightToeBase
					{
						OFFSET -0.108140 -7.191069 7.372968
						CHANNELS 3 Zrotation Yrotation Xrotation
						End Site
						{
							OFFSET 0.000000 0.000000 0.000000
						}
					}
				}
			}
		}
	}
	JOINT Spine_virtual
	{
		OFFSET 0.000000 0.000000 0.000000
		CHANNELS 3 Zrotation Yrotation Xrotation
		JOINT Spine
		{
			OFFSET 0.000000 6.876099 0.125700
			CHANNELS 3 Zrotation Yrotation Xrotation
			JOINT Spine1
			{
				OFFSET 0.000000 8.022060 0.146608
				CHANNELS 3 Zrotation Yrotation Xrotation
				JOINT Spine2
				{
					OFFSET 0.000000 9.168068 0.167552
					CHANNELS 3 Zrotation Yrotation Xrotation
					JOINT Neck_virtual
					{
						OFFSET 0.000000 0.000000 0.000000
						CHANNELS 3 Zrotation Yrotation Xrotation
						JOINT Neck
						{
							OFFSET 0.000000 10.314075 0.188496
							CHANNELS 3 Zrotation Yrotation Xrotation
							JOINT Head
							{
								OFFSET 0.000000 7.643700 -2.377400
								CHANNELS 3 Zrotation Yrotation Xrotation
								End Site
								{
									OFFSET 0.000000 0.000000 0.000000
								}
							}
						}
					}
					JOINT LeftShoulder_virtual
					{
						OFFSET 0.000000 0.000000 0.000000
						CHANNELS 3 Zrotation Yrotation Xrotation
						JOINT LeftShoulder
						{
							OFFSET 4.392200 8.824978 0.174984
							CHANNELS 3 Zrotation Yrotation Xrotation
							JOINT LeftArm
							{
								OFFSET 8.771219 -2.981674 -0.026999
								CHANNELS 3 Zrotation Yrotation Xrotation
								JOINT LeftForeArm
								{
									OFFSET 8.512804 0.000000 -0.000000
									CHANNELS 3 Zrotation Yrotation Xrotation
									JOINT LeftHand
									{
										OFFSET 18.484802 0.000000 -0.000000
										CHANNELS 3 Zrotation Yrotation Xrotation
										End Site
										{
											OFFSET 0.000000 0.000000 0.000000
										}
									}
								}
							}
						}
					}
					JOINT RightShoulder_virtual
					{
						OFFSET 0.000000 0.000000 0.000000
						CHANNELS 3 Zrotation Yrotation Xrotation
						JOINT RightShoulder
						{
							OFFSET -4.392200 8.824993 0.141379
							CHANNELS 3 Zrotation Yrotation Xrotation
							JOINT RightArm
							{
								OFFSET -8.771282 -2.981682 -0.094208
								CHANNELS 3 Zrotation Yrotation Xrotation
								JOINT RightForeArm
								{
									OFFSET -8.494598 0.000000 0.000000
									CHANNELS 3 Zrotation Yrotation Xrotation
									JOINT RightHand
									{
										OFFSET -18.483803 0.000000 0.000001
										CHANNELS 3 Zrotation Yrotation Xrotation
										End Site
										{
											OFFSET 0.000000 0.000000 0.000000
										}
									}
								}
							}
						}
					}
				}
			}
		}
	}
}
MOTION
Frames: 11
Frame Time: 0.033333
24.165953 32.493378 43.413273 -179.616599 28.150995 -179.967657 -2.399894 -0.341282 8.563520 -14.521348 -10.567044 -35.778074 20.850426 6.779005 19.873282 -2.204171 8.974573 4.140257 0.000000 0.000000 0.000000 3.725490 1.497499 8.825910 -1.677574 -5.903238 -34.133430 -5.471466 0.490370 62.701615 3.409240 12.238710 10.037422 0.000000 0.000000 0.000000 2.529095 2.962139 -3.499205 1.281870 -0.223661 -4.548261 -1.820215 -2.674855 3.477918 -0.077260 -0.043221 -0.058090 -2.935103 0.236862 8.084866 -5.801024 -6.904782 20.256637 0.000000 0.000000 0.000000 -1.089154 0.914792 5.379726 -8.763354 -2.436546 -5.129727 -70.197966 16.979809 -37.625934 -171.759095 -72.949631 -172.472426 0.000000 0.000000 0.000000 -4.851862 1.842403 5.219486 21.732644 0.159770 -2.963693 57.383534 -27.722203 -7.202620 -2.122986 23.781153 -3.898034 0.000000 0.000000 0.000000 
24.792404 32.571651 42.271976 -179.912702 29.544697 179.999226 -2.133449 -0.359528 8.326883 -15.738749 -10.020112 -32.978677 21.124027 5.848219 21.331640 -1.402319 9.646805 0.381915 0.000000 0.000000 0.000000 3.003010 2.293770 8.542013 -0.257551 -3.987692 -38.075593 -5.688623 0.603856 60.173167 3.404793 12.337601 9.876325 0.000000 0.000000 0.000000 1.735504 3.481419 -3.376581 1.195681 -0.618338 -3.943659 -1.597235 -2.577497 3.598994 -0.055662 0.008882 -0.010285 -2.567239 0.246398 8.222101 -5.214475 -7.369687 20.388159 0.000000 0.000000 0.000000 -0.780038 0.875581 5.392943 -7.969390 -3.474681 -4.892503 -68.573795 16.541554 -37.345490 -171.487636 -73.382787 -173.443242 0.000000 0.000000 0.000000 -4.466534 1.872091 5.279693 22.011041 -0.104878 -3.141086 57.507474 -28.606912 -7.570005 -2.171442 24.667703 -4.075410 0.000000 0.000000 0.000000 
25.452404 32.646935 41.127792 179.877185 30.833386 -179.668850 -2.251770 0.233849 8.345870 -15.778420 -10.428233 -31.375471 21.795304 5.817530 23.438742 -1.135731 9.649832 -2.367189 0.000000 0.000000 0.000000 2.320863 3.314594 8.087754 1.382965 -1.567144 -40.893811 -6.174795 0.164487 53.206764 3.819450 11.959313 10.730113 0.000000 0.000000 0.000000 0.922631 3.921039 -3.458889 1.184424 -0.972537 -3.439854 -1.372441 -2.471667 3.742785 0.026930 0.066915 0.046706 -2.280985 0.393946 8.491461 -4.668149 -7.819932 20.600231 0.000000 0.000000 0.000000 -0.468388 0.963108 5.505656 -7.536186 -4.654558 -4.592641 -66.671334 16.074121 -36.835074 -171.137015 -73.856174 -174.493903 0.000000 0.000000 0.000000 -4.189236 1.978820 5.420486 22.334085 -0.314320 -3.355377 57.225511 -29.617398 -7.471741 -2.182739 25.543967 -4.196798 0.000000 0.000000 0.000000 
26.145956 32.687756 39.868526 179.702864 31.417641 -179.485391 -2.104873 0.513322 8.486865 -16.325757 -10.813953 -29.434543 22.220166 6.017368 24.708525 -0.431797 9.263605 -3.280924 0.000000 0.000000 0.000000 1.758611 3.846028 7.482180 3.352637 1.056179 -42.715463 -6.856482 -0.159045 43.069981 4.283111 11.650754 12.451682 0.000000 0.000000 0.000000 0.189120 4.176141 -3.392095 1.212383 -1.223468 -2.939487 -1.098238 -2.368673 3.863551 0.025294 0.075599 0.153888 -1.954847 0.551678 8.713697 -3.962393 -8.335962 20.894437 0.000000 0.000000 0.000000 -0.262144 1.009255 5.718683 -7.360031 -5.970788 -4.453173 -64.930032 15.405258 -36.390975 -170.810354 -74.322779 -175.505590 0.000000 0.000000 0.000000 -3.847577 2.116583 5.551523 22.745910 -0.505916 -3.482573 56.424415 -30.421618 -6.963095 -2.257887 26.094126 -4.267679 0.000000 0.000000 0.000000 
26.889345 32.650414 38.484650 179.513750 31.156137 -179.112162 -2.093703 0.849016 8.850521 -17.208877 -10.359453 -27.704405 22.363088 5.617293 26.151321 -0.181158 8.819260 -4.640856 0.000000 0.000000 0.000000 1.086577 4.203323 6.984414 5.091531 4.228371 -44.322129 -7.438916 -0.904392 31.926753 4.634667 11.019331 14.514931 0.000000 0.000000 0.000000 -0.415930 4.300780 -3.596489 1.268138 -1.448691 -2.732865 -0.929433 -2.372025 3.983799 0.053017 0.028371 0.192988 -1.736695 0.409936 9.127207 -3.276127 -8.812474 21.372480 0.000000 0.000000 0.000000 -0.097445 1.081008 5.970305 -7.476847 -7.258971 -4.154312 -63.657527 14.661032 -35.902814 -170.868288 -74.826034 -176.066759 0.000000 0.000000 0.000000 -3.603916 2.187269 5.760392 23.119265 -0.611770 -3.627338 55.318068 -30.972866 -6.244465 -2.274802 26.162234 -4.255992 0.000000 0.000000 0.000000 
27.698311 32.553387 36.918228 179.044011 30.307219 -178.900590 -2.183786 1.056198 9.289755 -16.998568 -9.826135 -26.213916 20.221562 5.542386 27.812361 0.139176 8.227068 -6.099544 0.000000 0.000000 0.000000 0.288389 4.473275 6.377507 6.713609 7.438704 -45.410530 -7.788330 -1.554130 22.459373 4.642288 10.385971 16.255369 0.000000 0.000000 0.000000 -0.995793 4.288603 -3.971627 1.236947 -1.481035 -2.750724 -0.856481 -2.304662 4.103091 0.083334 0.061154 0.224526 -1.538323 0.422335 9.511493 -2.536959 -9.112184 21.797637 0.000000 0.000000 0.000000 -0.006516 0.996421 6.255972 -7.794926 -8.521180 -3.910655 -62.988653 14.050518 -35.434960 -170.952545 -75.097588 -176.504410 0.000000 0.000000 0.000000 -3.429482 2.123059 6.096139 23.540819 -0.758679 -3.824216 54.098366 -31.353775 -5.515815 -2.164876 25.794896 -4.072482 0.000000 0.000000 0.000000 
28.587685 32.444370 35.120255 178.460125 29.185224 -179.070471 -2.792007 0.971354 9.397294 -16.232501 -8.075387 -25.022716 18.592446 5.429156 29.594557 -0.357853 6.671422 -6.290791 0.000000 0.000000 0.000000 -0.715262 4.712923 6.087959 8.254101 10.547421 -45.832625 -7.956855 -2.197002 16.105552 4.004761 9.817733 17.269975 0.000000 0.000000 0.000000 -1.543494 3.966832 -4.388690 1.105196 -1.382012 -2.840912 -0.867480 -2.185223 4.284031 0.118763 0.161142 0.303122 -1.434465 0.361037 9.792012 -1.749815 -9.677500 22.258837 0.000000 0.000000 0.000000 0.004354 1.054564 6.375434 -8.063351 -9.404655 -3.766634 -62.961080 13.925686 -34.801006 -171.239714 -75.228509 -176.619758 0.000000 0.000000 0.000000 -3.315088 2.075940 6.323388 24.046711 -0.944128 -3.990162 53.223955 -31.689936 -4.986252 -2.078291 25.392427 -3.933239 0.000000 0.000000 0.000000 
29.569059 32.385174 33.129402 178.458213 27.300230 -179.126315 -3.229721 0.744256 9.315511 -14.954861 -5.101912 -23.643888 18.318735 5.279676 31.373658 -4.114530 3.445216 -5.210631 0.000000 0.000000 0.000000 -0.653008 4.237577 5.573683 9.665847 12.860342 -45.136697 -7.858514 -3.211048 11.954385 3.120914 9.923580 21.627425 0.000000 0.000000 0.000000 -1.730226 3.668821 -5.034734 1.054033 -1.427081 -3.104067 -0.900743 -2.247478 4.510412 0.147746 0.104450 0.268569 -1.438682 0.372827 10.260825 -0.922260 -10.045893 22.944824 0.000000 0.000000 0.000000 -0.036998 1.084014 6.721647 -8.145649 -9.977037 -3.540199 -63.423914 14.327213 -34.482709 -171.333383 -75.097862 -176.811195 0.000000 0.000000 0.000000 -3.288522 2.181141 6.696258 24.579484 -1.177203 -4.188786 52.815780 -32.199602 -4.737108 -1.936026 25.127873 -3.711906 0.000000 0.000000 0.000000 
30.603798 32.413097 30.907881 178.377535 25.323558 -179.397610 -3.720717 0.077785 8.965161 -12.577124 -3.208089 -21.674828 17.020801 4.066046 32.863677 -6.631475 0.708740 -1.551860 0.000000 0.000000 0.000000 1.059946 4.171624 4.896774 10.162252 13.259530 -43.618688 -7.788608 0.743069 11.240922 3.249216 11.013654 21.315475 0.000000 0.000000 0.000000 -1.961207 3.336836 -5.764556 0.783824 -1.359910 -3.343559 -0.888194 -2.216458 4.806314 0.200753 0.161536 0.280189 -1.410699 0.253281 10.581852 0.057800 -10.246785 23.576922 0.000000 0.000000 0.000000 -0.065391 1.000619 6.973484 -8.022131 -10.526603 -3.499614 -64.252450 15.270502 -34.244991 -172.137392 -74.844960 -176.202953 0.000000 0.000000 0.000000 -3.273096 2.002683 6.868177 25.092339 -1.697369 -4.523294 52.898336 -32.741680 -4.764789 -1.814031 24.996940 -3.597724 0.000000 0.000000 0.000000 
31.582697 32.486698 28.610872 178.218651 22.577317 178.895632 -4.470075 -0.647035 8.496908 -9.408277 -2.044951 -19.353874 15.916731 1.996461 34.212319 -7.881664 0.621057 3.080272 0.000000 0.000000 0.000000 2.620247 3.950541 4.697921 10.243144 13.872531 -40.724866 -8.404757 4.138928 12.474733 2.426303 11.131943 18.234681 0.000000 0.000000 0.000000 -2.314209 2.686307 -5.641937 0.518343 -1.389010 -2.955750 -0.907078 -2.273128 5.346202 0.221029 0.062690 0.060409 -1.446705 0.397011 10.699826 1.022614 -10.565959 23.784080 0.000000 0.000000 0.000000 -0.010538 1.009810 6.938740 -7.526080 -10.724075 -3.459334 -65.586673 16.258108 -34.397925 -172.810507 -74.629707 -175.692628 0.000000 0.000000 0.000000 -3.429827 2.004869 6.914390 25.436874 -2.381757 -4.780806 53.701905 -33.146054 -5.414224 -1.670593 25.169708 -3.443581 0.000000 0.000000 0.000000 
32.488338 32.598652 26.432615 177.921660 19.751053 177.976247 -5.247994 -1.430942 7.757417 -5.737948 -0.841057 -17.390439 15.363336 0.717808 35.830766 -8.297203 1.302091 7.067297 0.000000 0.000000 0.000000 3.150578 3.451011 4.253280 10.322899 14.543211 -37.880577 -8.860515 5.096983 13.744644 1.940331 10.774299 15.007778 0.000000 0.000000 0.000000 -2.767472 2.299090 -5.585491 -0.007245 -1.460561 -2.872288 -0.870237 -2.309413 5.345173 0.155974 0.010982 -0.071355 -1.243779 0.242372 10.863850 1.801912 -10.607559 24.184226 0.000000 0.000000 0.000000 0.273529 0.918794 7.126770 -6.893153 -10.964091 -3.611089 -66.914708 17.363896 -34.423498 -173.868531 -74.286927 -174.782055 0.000000 0.000000 0.000000 -3.381429 1.796974 7.036239 25.505339 -3.084886 -5.187778 54.706994 -33.427806 -6.249451 -1.396975 25.377201 -3.189967 0.000000 0.000000 0.000000 
